<svg xmlns="http://www.w3.org/2000/svg">

<symbol id="line">
    <path d="M48.12 87.334L8.787 48" stroke="#2F3435" stroke-width="12" stroke-miterlimit="10" stroke-linecap="square"/>
    <path d="M8.787 48L48.12 8.666" stroke="#2F3435" stroke-width="12" stroke-miterlimit="10" stroke-linecap="square"/>
    <path d="M8.787 48H109.213" stroke="#2F3435" stroke-width="12" stroke-miterlimit="10"/>

</symbol>
<symbol id="delete">
<path d="M14.8,12l3.6-3.6c0.8-0.8,0.8-2,0-2.8c-0.8-0.8-2-0.8-2.8,0L12,9.2L8.4,5.6c-0.8-0.8-2-0.8-2.8,0   c-0.8,0.8-0.8,2,0,2.8L9.2,12l-3.6,3.6c-0.8,0.8-0.8,2,0,2.8C6,18.8,6.5,19,7,19s1-0.2,1.4-0.6l3.6-3.6l3.6,3.6   C16,18.8,16.5,19,17,19s1-0.2,1.4-0.6c0.8-0.8,0.8-2,0-2.8L14.8,12z" id="exit"/>
</symbol>
</svg>




